<svg width="2438" height="579" viewBox="0 0 2438 579" fill="none" xmlns="http://www.w3.org/2000/svg">
<path d="M752.5 434C752.5 443.667 749 452 742 459C735.333 465.667 727.167 469 717.5 469H577.5C567.833 469 559.5 465.667 552.5 459C545.833 452 542.5 443.667 542.5 434V259C542.5 249.333 545.833 241.167 552.5 234.5C559.5 227.5 567.833 224 577.5 224H717.5C727.167 224 735.333 227.5 742 234.5C749 241.167 752.5 249.333 752.5 259V434ZM712.5 434V259H582.5V434H712.5ZM1049.92 364C1049.92 373.333 1046.42 381.5 1039.42 388.5C1032.42 395.5 1024.26 399 1014.92 399H879.922V469H839.922V294L874.922 259H839.922V224H1014.92C1024.26 224 1032.42 227.5 1039.42 234.5C1046.42 241.5 1049.92 249.667 1049.92 259V364ZM1009.92 364V259H879.922V394L909.922 364H1009.92ZM1274.9 259H1202.4V469H1162.4V259H1089.9V224H1274.9V259ZM1362.34 469H1322.34V224H1362.34V469ZM1697.23 468.5H1657.23V284.5L1672.23 259.5H1649.73L1588.23 399H1559.23L1499.73 259.5H1477.23L1492.23 284.5V468.5H1452.23V224H1523.73L1573.23 341H1578.23L1627.73 224H1697.23V468.5ZM1827.19 469H1787.19V224H1827.19V469ZM2109.57 469H1899.57V426.5L2067.07 259H1899.57V224H2109.57V267L1942.07 434H2109.57V469ZM2392.21 469H2352.21V399H2222.21V469H2182.21V259C2182.21 249.333 2185.54 241.167 2192.21 234.5C2199.21 227.5 2207.54 224 2217.21 224H2392.21V469ZM2352.21 364V259H2222.21V394L2252.21 364H2352.21Z" fill="white"/>
<path d="M453.5 322.237V468.5H330.5L330.5 221.555L453.5 322.237Z" fill="#FFB345" stroke="black"/>
<path d="M123.002 248.238L124.497 468H0.5V148.055L123.002 248.238Z" fill="#FFB345" stroke="black"/>
<path d="M279.5 468.5H453.5V498.5H279.5V468.5Z" fill="#FFB345" stroke="black"/>
<path d="M0.5 468.5H244.5V498.5H0.5V468.5Z" fill="white" stroke="black"/>
<path d="M245.5 499V24.2591L278.5 0.96496V499H245.5Z" fill="white" stroke="black"/>
<path d="M96.5 167.329V499H63.5022L64.9967 153.758L96.5 167.329Z" fill="white" stroke="black"/>
<path d="M96.9405 166.43L65.5118 152.891L244.5 24.9719V62.241L96.9405 166.43Z" fill="white" stroke="black"/>
<path d="M278.999 379.291L278.507 289.716L456.295 468H368.206L278.999 379.291Z" fill="white" stroke="black"/>
<path d="M278 379.295V289.695L97.219 468H190.79L278 379.295Z" fill="#FFB345" stroke="black"/>
</svg>
